<svg width="180" height="180" viewBox="0 0 180 180" fill="none" xmlns="http://www.w3.org/2000/svg">
<path fill-rule="evenodd" clip-rule="evenodd" d="M177.503 111.142C167.992 150.647 132.424 180 90 180C40.2944 180 0 139.706 0 90C0 88.3181 0.0461329 86.6471 0.137202 84.988L102.231 112.351L107.575 92.4003L177.503 111.142ZM179.733 96.978L77.7687 69.6494L72.4243 89.6L2.06504 70.7423C10.8831 30.2902 46.9042 0 90 0C95.3841 0 100.658 0.472778 105.782 1.37909L120.759 5.39313C155.318 17.9598 180 51.0975 180 90C180 92.3481 179.91 94.6752 179.733 96.978Z" fill="#0099FF"/>
<path fill-rule="evenodd" clip-rule="evenodd" d="M164.493 107.655L164.131 108.539L160.361 112.788L157.277 119.368V130.188L158.308 134.446L156.596 136.374L152.821 138.695L148.881 141.981L152.14 145.652L147.684 149.524L148.54 152.03L141.856 159.573H137.405L133.635 161.895H131.232V158.802L130.211 152.608C128.885 148.725 127.504 144.871 126.1 141.017C126.1 138.191 126.268 135.393 126.437 132.568L126.441 132.51L128.158 128.646L125.755 124.002L125.93 117.625L122.671 113.953L124.3 108.64L121.649 105.641H117.018L115.476 103.902L110.85 106.804L108.968 104.673L104.682 108.346C104.33 107.948 103.977 107.549 103.624 107.151L107.575 92.4003L164.493 107.655ZM179.043 76.8306L177.835 79.1607C176.397 77.4714 174.798 76.0274 173.163 74.5521C173.009 74.4124 172.853 74.2723 172.698 74.1317L168.758 74.7097L165.158 70.6533V75.6734L168.242 77.9997L170.295 80.3171L173.038 77.2244C173.499 78.0844 173.955 78.9444 174.412 79.8044L174.754 80.4499L175.096 81.0923V84.9561L172.007 88.434L166.355 92.302L165.491 93.1608L160.025 91.6958L160.702 89.9803L157.963 86.8877L153.337 77.0313L149.397 72.5896L148.366 73.746L149.912 79.3534L152.821 82.6387C153.755 85.326 154.683 87.9464 155.705 90.5378L97.6281 74.9721L97.6575 74.9028C100.751 71.0668 103.982 67.3868 107.251 63.6932L113.078 62.1468L119.587 61.3758L124.043 62.5368L130.381 68.9101L132.609 66.4001L135.689 66.0148L141.516 67.9464H145.972L149.056 65.239L150.428 63.3074L147.339 61.3758L142.197 60.9905C141.878 60.5495 141.564 60.1033 141.25 59.6569L141.25 59.6564L141.25 59.6558L141.249 59.6553L141.249 59.6548L141.248 59.6543L141.248 59.6537L141.248 59.6532L141.247 59.6527L141.247 59.6522L141.246 59.6512C140.157 58.1025 139.064 56.55 137.75 55.1905L136.033 55.9615L135.347 60.9905L132.263 57.5125L131.582 53.6399L128.157 50.9419H126.781L130.21 54.8056L128.838 58.2836L126.099 59.0546L127.812 55.5767L124.723 54.035L121.989 50.9424L116.842 52.0987L116.161 53.6404L113.077 55.5767L111.365 59.8304L107.084 61.9547L105.196 59.8304H103.144V52.8698L107.599 50.5482H111.024L110.334 47.8455L107.599 45.1381L112.221 44.1697L114.79 41.2744L116.842 37.7917H120.617L119.586 35.0891L121.989 33.5427V36.6354L127.126 37.7917L132.262 33.5427L132.607 31.6064L137.059 28.5161C136.805 28.5475 136.552 28.5775 136.299 28.6076C134.942 28.7688 133.589 28.9295 132.262 29.2895V25.8073L133.974 21.9413H132.262L128.499 25.4192L127.467 27.3532L128.499 30.0629L126.781 34.6972L124.042 33.1509L121.649 30.4482L117.874 33.1509L116.502 26.9679L123.011 22.7165V20.3949L127.126 17.6899L133.635 16.1412L138.091 17.6899L145.397 19.0641C145.607 19.2285 145.817 19.3938 146.025 19.56L144.259 21.5536H139.804L144.259 26.1926L147.684 22.3289L148.222 21.3664C164.501 35.1897 175.799 54.7017 179.043 76.8306ZM61.4542 4.62128C61.7902 4.50899 62.127 4.39863 62.4648 4.29021L66.0971 3.77015L67.464 6.08988C64.9734 6.89288 62.6165 7.65923 60.2692 8.79725L56.8419 9.57065L55.1271 11.1146L50.676 10.3436L51.5853 9.12992L53.0743 8.41196L56.1377 6.97793L59.5833 6.47987L61.4542 4.62128ZM37.2875 17.0441C37.6581 16.7759 38.0309 16.5103 38.4058 16.2476L40.3921 16.5285L42.4472 17.6895L42.1041 21.9409L38.3341 25.4189L29.7676 30.4478L30.7966 33.9258L37.3075 36.6332L38.3341 41.2722L40.7348 36.2479L44.5023 34.6969L44.1616 32.3752L47.9291 25.807L52.7257 28.5143L52.0399 31.6047L56.153 30.063L57.8654 33.541L57.1796 35.8584L59.5779 36.6336L61.6354 38.57L60.9496 40.8827L55.1221 42.819H51.0137L45.1886 45.5263H54.441L51.3545 50.1606L45.1886 51.3259L42.4477 55.1896L37.6511 57.1213L35.2528 62.9213L28.7419 68.3314L28.0561 76.0677L24.2862 71.424L19.1469 70.2677L18.4634 72.5893H14.3527L12.934 73.6554L2.06516 70.7423C6.4133 50.7957 17.3756 33.3198 32.5389 20.7278C33.7557 20.5662 35.9387 20.3946 35.9387 20.3946L37.2875 17.0441ZM38.6292 163.908C38.6358 163.806 38.6773 163.821 38.6773 163.821L40.7348 154.928L38.6773 150.294L39.0223 142.172L36.279 138.308L30.1131 132.894L23.9449 121.68L25.6573 115.889L24.9715 114.338L27.029 111.245L29.7681 103.901V103.277L27.7129 102.355L24.972 102.74L20.1778 99.2622L17.0913 95.3943L9.89645 93.458L2.7016 89.209C2.7016 89.209 1.07825 86.6691 0.140625 84.9888L18.6159 89.9405C18.5653 90.3406 18.5146 90.7408 18.4639 91.141L21.8952 90.8194L22.5746 91.0015V95.0095L23.9463 98.8732C25.0459 99.5471 26.4224 99.8073 27.7687 100.062C28.4572 100.192 29.1379 100.32 29.7695 100.502V99.6489L35.6389 94.503L36.687 94.7839L41.7633 98.4879L47.9213 97.7949L48.7245 98.0101L51.3559 105.059L56.4952 106.217L59.2382 111.631L59.643 111.838C65.0909 114.632 70.536 117.424 76.0251 120.137L75.3393 125.938L71.2285 131.738L71.9143 139.465L69.171 145.65L64.0294 146.815L61.6358 150.293L62.6625 152.606L59.2376 161.113L54.7818 162.664L53.7528 165.371L51.0137 168.078L51.6972 170.006C51.6972 170.006 51.1658 170.418 50.5252 170.904C46.3702 168.872 42.3948 166.531 38.6292 163.908ZM99.3305 6.4803L90.419 3L80.1447 4.15869L67.4632 7.63665L65.0649 9.95826L72.9456 15.3683V18.461L69.8615 21.5536L73.9765 29.6776L76.7109 28.1266L80.1447 22.7166C85.4381 21.0852 90.1842 19.2363 95.2155 16.9165L99.3305 6.4803ZM95.2085 24.6463L95.5535 22.329L96.9214 22.7166L99.6647 21.1679L101.717 23.4876L97.6115 26.1927L95.2085 24.6463ZM107.207 35.473L108.578 38.9557L105.494 40.4973L104.804 36.2483L107.207 35.473ZM109.953 38.1757L109.267 42.8194L113.037 42.0441L115.776 39.3414L113.378 37.0198C112.572 34.8814 111.647 32.8855 110.639 30.8345H108.586V33.1519L109.953 34.6982V38.1757ZM51.7017 23.8729L55.1266 26.1926H57.87V23.4876L54.4451 21.9413L51.7017 23.8729ZM41.0808 25.034L42.7956 20.7826L45.537 18.4615L45.1939 14.5954L45.8774 13.0491L47.5922 16.5294L48.961 13.8239L52.0451 13.0486L52.3883 14.9826L58.8973 15.756L60.6121 19.2363L64.3844 20.7826L60.9552 23.8729C58.6701 22.3289 56.3868 20.7826 54.1035 19.2363L50.6763 18.0752C49.385 18.9355 48.1191 19.8292 46.8524 20.7236L46.8522 20.7237C46.6425 20.8718 46.4328 21.0199 46.2229 21.1679L44.508 25.034H41.0808ZM63.01 44.7509L60.9525 47.8436L59.9235 42.4335L63.01 44.7509Z" fill="#6ECC13"/>
</svg>
