<svg width="772" height="180" viewBox="0 0 772 180" fill="none" xmlns="http://www.w3.org/2000/svg">
<path fill-rule="evenodd" clip-rule="evenodd" d="M177.503 111.142C167.992 150.647 132.424 180 90 180C40.2944 180 0 139.706 0 90C0 88.3181 0.0461329 86.6471 0.137202 84.988L102.231 112.351L107.575 92.4003L177.503 111.142ZM179.733 96.978L77.7687 69.6494L72.4243 89.6L2.06504 70.7423C10.8831 30.2902 46.9042 0 90 0C95.3841 0 100.658 0.472778 105.782 1.37909L120.759 5.39313C155.318 17.9598 180 51.0975 180 90C180 92.3481 179.91 94.6752 179.733 96.978Z" fill="#0099FF"/>
<path fill-rule="evenodd" clip-rule="evenodd" d="M164.493 107.655L164.131 108.539L160.361 112.788L157.277 119.368V130.188L158.308 134.446L156.596 136.374L152.821 138.695L148.881 141.981L152.14 145.652L147.684 149.524L148.54 152.03L141.856 159.573H137.405L133.635 161.895H131.232V158.802L130.211 152.608C128.885 148.725 127.504 144.871 126.1 141.017C126.1 138.191 126.268 135.393 126.437 132.568L126.441 132.51L128.158 128.646L125.755 124.002L125.93 117.625L122.671 113.953L124.3 108.64L121.649 105.641H117.018L115.476 103.902L110.85 106.804L108.968 104.673L104.682 108.346C104.33 107.948 103.977 107.549 103.624 107.151L107.575 92.4003L164.493 107.655ZM179.043 76.8306L177.835 79.1607C176.397 77.4713 174.797 76.0274 173.163 74.552C173.008 74.4123 172.853 74.2723 172.698 74.1317L168.758 74.7097L165.158 70.6533V75.6734L168.242 77.9997L170.295 80.3171L173.038 77.2244C173.499 78.0835 173.954 78.9426 174.41 79.8016C174.639 80.2319 174.867 80.6621 175.096 81.0923V84.9561L172.007 88.434L166.355 92.302L165.491 93.1608L160.025 91.6958L160.702 89.9803L157.963 86.8877L153.337 77.0313L149.397 72.5896L148.366 73.746L149.912 79.3534L152.821 82.6387C153.755 85.326 154.683 87.9464 155.705 90.5378L97.6281 74.9721L97.6575 74.9028C100.751 71.0668 103.982 67.3868 107.251 63.6932L113.078 62.1468L119.587 61.3758L124.043 62.5368L130.381 68.9101L132.609 66.4001L135.689 66.0148L141.516 67.9464H145.972L149.056 65.239L150.428 63.3074L147.339 61.3758L142.197 60.9905C141.877 60.5476 141.562 60.0995 141.246 59.6512C140.157 58.1025 139.064 56.55 137.75 55.1905L136.033 55.9615L135.347 60.9905L132.263 57.5125L131.582 53.6399L128.157 50.9419H126.781L130.21 54.8056L128.838 58.2836L126.099 59.0546L127.812 55.5767L124.723 54.035L121.989 50.9424L116.842 52.0987L116.161 53.6404L113.077 55.5767L111.365 59.8304L107.084 61.9547L105.196 59.8304H103.144V52.8698L107.599 50.5482H111.024L110.334 47.8455L107.599 45.1381L112.221 44.1697L114.79 41.2744L116.842 37.7917H120.617L119.586 35.0891L121.989 33.5427V36.6354L127.126 37.7917L132.262 33.5427L132.607 31.6064L137.059 28.5161C136.807 28.5473 136.555 28.5771 136.304 28.607L136.304 28.6071L136.303 28.6071L136.302 28.6072L136.302 28.6073L136.301 28.6074L136.301 28.6074L136.3 28.6075L136.299 28.6076C134.942 28.7688 133.589 28.9295 132.262 29.2895V25.8073L133.974 21.9413H132.262L128.499 25.4192L127.467 27.3532L128.499 30.0629L126.781 34.6972L124.042 33.1509L121.649 30.4482L117.874 33.1509L116.502 26.9679L123.011 22.7165V20.3949L127.126 17.6899L133.635 16.1412L138.091 17.6899L145.397 19.0641C145.607 19.2285 145.817 19.3938 146.025 19.56L144.259 21.5536H139.804L144.259 26.1926L147.684 22.3289L148.222 21.3664C164.501 35.1897 175.799 54.7017 179.043 76.8306ZM61.4542 4.62128C61.7902 4.50899 62.127 4.39863 62.4648 4.29021L66.0971 3.77015L67.464 6.08988C64.9734 6.89288 62.6165 7.65923 60.2692 8.79725L56.8419 9.57065L55.1271 11.1146L50.676 10.3436L51.5853 9.12992L53.0743 8.41196L56.1377 6.97793L59.5833 6.47987L61.4542 4.62128ZM37.2875 17.0441C37.6581 16.7759 38.0309 16.5103 38.4058 16.2476L40.3921 16.5285L42.4472 17.6895L42.1041 21.9409L38.3341 25.4189L29.7676 30.4478L30.7966 33.9258L37.3075 36.6332L38.3341 41.2722L40.7348 36.2479L44.5023 34.6969L44.1616 32.3752L47.9291 25.807L52.7257 28.5143L52.0399 31.6047L56.153 30.063L57.8654 33.541L57.1796 35.8584L59.5779 36.6336L61.6354 38.57L60.9496 40.8827L55.1221 42.819H51.0137L45.1886 45.5263H54.441L51.3545 50.1606L45.1886 51.3259L42.4477 55.1896L37.6511 57.1213L35.2528 62.9213L28.7419 68.3314L28.0561 76.0677L24.2862 71.424L19.1469 70.2677L18.4634 72.5893H14.3527L12.934 73.6554L2.06516 70.7423C6.4133 50.7957 17.3756 33.3198 32.5389 20.7278C33.7557 20.5662 35.9387 20.3946 35.9387 20.3946L37.2875 17.0441ZM38.6292 163.908C38.6358 163.806 38.6773 163.821 38.6773 163.821L40.7348 154.928L38.6773 150.294L39.0223 142.172L36.279 138.308L30.1131 132.894L23.9449 121.68L25.6573 115.889L24.9715 114.338L27.029 111.245L29.7681 103.901V103.277L27.7129 102.355L24.972 102.74L20.1778 99.2622L17.0913 95.3943L9.89645 93.458L2.7016 89.209C2.7016 89.209 1.07825 86.6691 0.140625 84.9888L18.6159 89.9405C18.5653 90.3406 18.5146 90.7408 18.4639 91.141L21.8952 90.8194L22.5746 91.0015V95.0095L23.9463 98.8732C25.0459 99.5471 26.4224 99.8073 27.7687 100.062C28.4572 100.192 29.1379 100.32 29.7695 100.502V99.6489L35.6389 94.503L36.687 94.7839L41.7633 98.4879L47.9213 97.7949L48.7245 98.0101L51.3559 105.059L56.4952 106.217L59.2382 111.631L59.643 111.838C65.0909 114.632 70.536 117.424 76.0251 120.137L75.3393 125.938L71.2285 131.738L71.9143 139.465L69.171 145.65L64.0294 146.815L61.6358 150.293L62.6625 152.606L59.2376 161.113L54.7818 162.664L53.7528 165.371L51.0137 168.078L51.6972 170.006C51.6972 170.006 51.1658 170.418 50.5252 170.904C46.3702 168.872 42.3948 166.531 38.6292 163.908ZM99.3305 6.4803L90.419 3L80.1447 4.15869L67.4632 7.63665L65.0649 9.95826L72.9456 15.3683V18.461L69.8615 21.5536L73.9765 29.6776L76.7109 28.1266L80.1447 22.7166C85.4381 21.0852 90.1842 19.2363 95.2155 16.9165L99.3305 6.4803ZM95.2085 24.6463L95.5535 22.329L96.9214 22.7166L99.6647 21.1679L101.717 23.4876L97.6115 26.1927L95.2085 24.6463ZM107.207 35.473L108.578 38.9557L105.494 40.4973L104.804 36.2483L107.207 35.473ZM109.953 38.1757L109.267 42.8194L113.037 42.0441L115.776 39.3414L113.378 37.0198C112.572 34.8814 111.647 32.8855 110.639 30.8345H108.586V33.1519L109.953 34.6982V38.1757ZM51.7017 23.8729L55.1266 26.1926H57.87V23.4876L54.4451 21.9413L51.7017 23.8729ZM41.0808 25.034L42.7956 20.7826L45.537 18.4615L45.1939 14.5954L45.8774 13.0491L47.5922 16.5294L48.961 13.8239L52.0451 13.0486L52.3883 14.9826L58.8973 15.756L60.6121 19.2363L64.3844 20.7826L60.9552 23.8729C58.6701 22.3289 56.3868 20.7826 54.1035 19.2363L50.6763 18.0752C49.385 18.9355 48.1191 19.8292 46.8524 20.7236L46.8522 20.7237C46.6425 20.8718 46.4328 21.0199 46.2229 21.1679L44.508 25.034H41.0808ZM63.01 44.7509L60.9525 47.8436L59.9235 42.4335L63.01 44.7509Z" fill="#6ECC13"/>
<path d="M236.12 74.28C240.44 67.56 248.04 64.2 258.92 64.2V78.48C257.64 78.24 256.48 78.12 255.44 78.12C249.6 78.12 245.04 79.84 241.76 83.28C238.48 86.64 236.84 91.52 236.84 97.92V129H221.84V64.92H236.12V74.28ZM307.165 64.2C313.405 64.2 318.965 65.56 323.845 68.28C328.805 71 332.685 74.84 335.485 79.8C338.285 84.76 339.685 90.48 339.685 96.96C339.685 103.44 338.285 109.2 335.485 114.24C332.685 119.2 328.805 123.04 323.845 125.76C318.965 128.48 313.405 129.84 307.165 129.84C302.765 129.84 298.725 129.08 295.045 127.56C291.445 126.04 288.405 123.76 285.925 120.72V129H271.645V39.96H286.645V72.72C289.205 69.92 292.205 67.8 295.645 66.36C299.165 64.92 303.005 64.2 307.165 64.2ZM305.485 117C311.005 117 315.525 115.16 319.045 111.48C322.645 107.8 324.445 102.96 324.445 96.96C324.445 90.96 322.645 86.12 319.045 82.44C315.525 78.76 311.005 76.92 305.485 76.92C301.885 76.92 298.645 77.76 295.765 79.44C292.885 81.04 290.605 83.36 288.925 86.4C287.245 89.44 286.405 92.96 286.405 96.96C286.405 100.96 287.245 104.48 288.925 107.52C290.605 110.56 292.885 112.92 295.765 114.6C298.645 116.2 301.885 117 305.485 117ZM392.601 129L376.161 106.8L359.601 129H343.041L368.001 96.48L344.121 64.92H360.801L376.521 85.92L392.241 64.92H408.441L384.441 96.24L409.521 129H392.601ZM478.218 86.04H492.978V119.52C488.658 122.96 483.618 125.6 477.858 127.44C472.098 129.28 466.178 130.2 460.098 130.2C451.538 130.2 443.818 128.36 436.938 124.68C430.058 120.92 424.658 115.76 420.738 109.2C416.818 102.64 414.858 95.24 414.858 87C414.858 78.76 416.818 71.36 420.738 64.8C424.658 58.24 430.058 53.12 436.938 49.44C443.898 45.68 451.698 43.8 460.338 43.8C467.378 43.8 473.778 44.96 479.538 47.28C485.298 49.6 490.138 53 494.058 57.48L484.218 67.08C477.818 60.68 470.098 57.48 461.058 57.48C455.138 57.48 449.858 58.72 445.218 61.2C440.658 63.68 437.058 67.16 434.418 71.64C431.858 76.12 430.578 81.24 430.578 87C430.578 92.6 431.858 97.64 434.418 102.12C437.058 106.6 440.658 110.12 445.218 112.68C449.858 115.24 455.098 116.52 460.938 116.52C467.498 116.52 473.258 115.08 478.218 112.2V86.04ZM512.113 39.96H527.113V129H512.113V39.96ZM575.601 129.84C569.121 129.84 563.281 128.44 558.081 125.64C552.881 122.84 548.801 118.96 545.841 114C542.961 108.96 541.521 103.28 541.521 96.96C541.521 90.64 542.961 85 545.841 80.04C548.801 75.08 552.881 71.2 558.081 68.4C563.281 65.6 569.121 64.2 575.601 64.2C582.161 64.2 588.041 65.6 593.241 68.4C598.441 71.2 602.481 75.08 605.361 80.04C608.321 85 609.801 90.64 609.801 96.96C609.801 103.28 608.321 108.96 605.361 114C602.481 118.96 598.441 122.84 593.241 125.64C588.041 128.44 582.161 129.84 575.601 129.84ZM575.601 117C581.121 117 585.681 115.16 589.281 111.48C592.881 107.8 594.681 102.96 594.681 96.96C594.681 90.96 592.881 86.12 589.281 82.44C585.681 78.76 581.121 76.92 575.601 76.92C570.081 76.92 565.521 78.76 561.921 82.44C558.401 86.12 556.641 90.96 556.641 96.96C556.641 102.96 558.401 107.8 561.921 111.48C565.521 115.16 570.081 117 575.601 117ZM659.665 64.2C665.905 64.2 671.465 65.56 676.345 68.28C681.305 71 685.185 74.84 687.985 79.8C690.785 84.76 692.185 90.48 692.185 96.96C692.185 103.44 690.785 109.2 687.985 114.24C685.185 119.2 681.305 123.04 676.345 125.76C671.465 128.48 665.905 129.84 659.665 129.84C655.265 129.84 651.225 129.08 647.545 127.56C643.945 126.04 640.905 123.76 638.425 120.72V129H624.145V39.96H639.145V72.72C641.705 69.92 644.705 67.8 648.145 66.36C651.665 64.92 655.505 64.2 659.665 64.2ZM657.985 117C663.505 117 668.025 115.16 671.545 111.48C675.145 107.8 676.945 102.96 676.945 96.96C676.945 90.96 675.145 86.12 671.545 82.44C668.025 78.76 663.505 76.92 657.985 76.92C654.385 76.92 651.145 77.76 648.265 79.44C645.385 81.04 643.105 83.36 641.425 86.4C639.745 89.44 638.905 92.96 638.905 96.96C638.905 100.96 639.745 104.48 641.425 107.52C643.105 110.56 645.385 112.92 648.265 114.6C651.145 116.2 654.385 117 657.985 117ZM766.65 97.32C766.65 98.36 766.57 99.84 766.41 101.76H716.13C717.01 106.48 719.29 110.24 722.97 113.04C726.73 115.76 731.37 117.12 736.89 117.12C743.93 117.12 749.73 114.8 754.29 110.16L762.33 119.4C759.45 122.84 755.81 125.44 751.41 127.2C747.01 128.96 742.05 129.84 736.53 129.84C729.49 129.84 723.29 128.44 717.93 125.64C712.57 122.84 708.41 118.96 705.45 114C702.57 108.96 701.13 103.28 701.13 96.96C701.13 90.72 702.53 85.12 705.33 80.16C708.21 75.12 712.17 71.2 717.21 68.4C722.25 65.6 727.93 64.2 734.25 64.2C740.49 64.2 746.05 65.6 750.93 68.4C755.89 71.12 759.73 75 762.45 80.04C765.25 85 766.65 90.76 766.65 97.32ZM734.25 76.2C729.45 76.2 725.37 77.64 722.01 80.52C718.73 83.32 716.73 87.08 716.01 91.8H752.37C751.73 87.16 749.77 83.4 746.49 80.52C743.21 77.64 739.13 76.2 734.25 76.2Z" fill="white"/>
</svg>
